<?xml version="1.0" encoding="UTF-8" standalone="no"?>
<svg
   xmlns:dc="http://purl.org/dc/elements/1.1/"
   xmlns:cc="http://creativecommons.org/ns#"
   xmlns:rdf="http://www.w3.org/1999/02/22-rdf-syntax-ns#"
   xmlns:svg="http://www.w3.org/2000/svg"
   xmlns="http://www.w3.org/2000/svg"
   xmlns:xlink="http://www.w3.org/1999/xlink"
   xmlns:sodipodi="http://sodipodi.sourceforge.net/DTD/sodipodi-0.dtd"
   xmlns:inkscape="http://www.inkscape.org/namespaces/inkscape"
   id="svg2"
   style="enable-background:new"
   viewBox="0 0 717.82 1032.9"
   version="1.0"
   inkscape:version="0.48.4 r9939"
   width="100%"
   height="100%"
   sodipodi:docname="Steren_Twisted_Branch_2.svg">
  <defs
     id="defs3071">
    <linearGradient
       inkscape:collect="always"
       id="linearGradient3092">
      <stop
         style="stop-color:#666666;stop-opacity:1;"
         offset="0"
         id="stop3094" />
      <stop
         style="stop-color:#666666;stop-opacity:0;"
         offset="1"
         id="stop3096" />
    </linearGradient>
    <linearGradient
       inkscape:collect="always"
       xlink:href="#linearGradient3092"
       id="linearGradient3098"
       x1="-373.91641"
       y1="802.10815"
       x2="-1069.5"
       y2="454.70941"
       gradientUnits="userSpaceOnUse" />
  </defs>
  <sodipodi:namedview
     pagecolor="#ffffff"
     bordercolor="#666666"
     borderopacity="1"
     objecttolerance="10"
     gridtolerance="10"
     guidetolerance="10"
     inkscape:pageopacity="0"
     inkscape:pageshadow="2"
     inkscape:window-width="1578"
     inkscape:window-height="842"
     id="namedview3069"
     showgrid="false"
     inkscape:zoom="0.64478652"
     inkscape:cx="358.91"
     inkscape:cy="516.45"
     inkscape:window-x="10"
     inkscape:window-y="28"
     inkscape:window-maximized="0"
     inkscape:current-layer="svg2" />
  <g
     id="layer1"
     transform="matrix(-0.60177769,0.79866364,0.79866364,0.60177769,-487.20933,682.89624)"
     style="fill:url(#linearGradient3098);fill-rule:evenodd;fill-opacity:1"
     inkscape:export-filename="/home/kflom/code/infopipes/img/branch2.png"
     inkscape:export-xdpi="36.947247"
     inkscape:export-ydpi="36.947247">
    <path
       id="path2316-4"
       style="enable-background:new;fill:url(#linearGradient3098);fill-opacity:1"
       d="m -542.5,138.58 c 4.2251,-0.55858 7.3313,0.47077 9.9454,2.2659 v 1e-5 c 1.44,0.8742 2.6348,2.0667 3.6954,3.3797 1.0606,1.313 1.9856,2.7501 2.7534,4.2032 1.5355,2.9062 2.4027,5.9239 1.8841,8.2801 -0.31176,1.4165 0.24876,2.3684 0.7412,2.9071 1.1844,0.53854 2.6793,0.89204 4.447,0.97053 1.7677,0.0785 3.8102,-0.12226 6.0544,-0.70039 2.427,-0.63432 5.1516,-2.103 7.8232,-4.6947 v -1e-5 c 2.5308,-2.6554 4.238,-6.0622 4.9064,-9.7503 0.11829,-0.54918 0.21972,-1.0951 0.30509,-1.6354 0.52822,-9.5353 -2.7872,-18.912 -9.5643,-26.143 h -10e-6 c -9.5929,-9.1047 -21.637,-12.864 -32.532,-12.449 h -1e-5 c -13.301,0.0851 -26.014,5.5029 -35.266,15.046 0,0 -10e-6,0 -10e-6,1e-5 -7.9294,7.9618 -13.217,18.926 -13.986,31.193 -0.0123,0.51228 -0.0173,1.0229 -0.0151,1.5317 0.0319,6.3299 1.1459,12.521 3.229,18.339 2.0831,5.818 5.1353,11.263 8.9797,16.062 3.5471,4.7009 7.8947,9.0094 12.972,12.623 5.0777,3.6136 10.885,6.5321 17.322,8.4111 6.616,1.7665 13.451,2.3795 20.218,1.8615 6.7669,-0.518 13.465,-2.167 19.763,-4.896 11.957,-5.1089 22.519,-13.815 29.769,-25.247 7.2824,-11.647 11.009,-25.333 10.748,-39.126 -0.21313,-13.354 -4.1302,-26.751 -11.675,-38.216 -9.6663,-14.428 -24.187,-25.016 -40.422,-30.389 -16.002,-5.3451 -33.548,-5.8819 -49.834,-1.2816 -11.945,3.3973 -22.967,9.5861 -32.039,17.892 -9.5223,8.7746 -16.766,19.486 -21.95,30.839 -6.5722,14.475 -10.259,29.706 -11.942,44.983 -1.6831,15.277 -1.3682,30.596 0.0762,45.305 2.0249,21.215 6.2504,41.748 12.298,60.94 6.0472,19.192 13.914,37.037 23.071,53.133 10e-6,1e-5 10e-6,2e-5 2e-5,3e-5 6.6412,11.665 13.905,22.371 21.23,32.301 2.6961,3.6555 5.3905,7.1867 7.9568,10.687 1.7733,2.4303 3.4972,4.7264 4.7562,7.1271 l -12.091,6.388 c -0.56619,-1.2007 -1.953,-2.9319 -3.73,-5.439 -2.5222,-3.4269 -5.2173,-6.9556 -7.9599,-10.68 l -3e-5,-3e-5 c -7.8897,-10.704 -15.35,-21.928 -22.016,-33.796 -10e-6,-10e-6 -2e-5,-2e-5 -2e-5,-3e-5 -20.573,-36.808 -32.348,-78.022 -35.652,-119.73 v -3e-5 c -2.8088,-31.388 0.0289,-65.063 14.45,-95.851 5.867,-12.358 14.136,-24.002 24.949,-33.67 0,-5e-6 10e-6,-1e-5 10e-6,-1.4e-5 10.383,-9.1577 22.811,-15.827 36.257,-19.394 18.172,-4.7499 37.403,-3.8456 54.985,2.3956 17.606,6.1503 33.302,17.978 43.881,34.277 8.0379,12.738004 12.156,27.426004 12.128,42.206004 v 5e-5 c 0.0381,14.823 -4.1483,29.618 -12.421,42.428 -7.9983,12.153 -19.461,21.515 -32.772,26.965 -13.396,5.5946 -28.649,6.7828 -43.409,2.6758 -13.634,-4.2167 -24.793,-12.581 -32.461,-23.058 -8.1447,-10.325 -13.096,-23.849 -12.696,-38.812 0.96754,-13.396 6.5252,-25.192 14.969,-33.863 10e-6,-1e-5 2e-5,-1e-5 2e-5,-2e-5 9.9026,-10.491 23.494,-16.701 38.224,-17.203 11.802,-0.916414 25.243,2.9658 36.88,13.256 0.28389,0.29142 0.56295,0.58587 0.83718,0.88327 2.4846,2.6946 4.4342,5.4676 5.9731,8.2282 1.539,2.7606 2.6671,5.5099 3.4807,8.2015 1.6271,5.3831 2.0175,10.52 1.648,15.341 -0.52381,5.4188 -2.4483,10.092 -5.394,14.022 -3.3051,4.0568 -6.5063,6.6756 -9.4477,8.191 -3.4341,1.8176 -6.6485,3.1374 -9.7064,4.0954 -3.0579,0.95791 -5.9642,1.5473 -8.6633,1.8118 -2.1388,0.30832 -4.3428,0.55347 -6.6365,0.73577 -3.7672,0.29942 -7.3343,0.0525 -10.49,-0.64118 -4.2018,-0.87629 -7.6381,-2.5098 -10.255,-4.788 -1.3083,-1.1391 -2.414,-2.4451 -3.2805,-3.9327 -0.86652,-1.4876 -1.4943,-3.1582 -1.7971,-5.0305 -0.31935,-1.975 -0.40334,-4.0773 -0.15014,-6.1768 0.2532,-2.0994 0.84777,-4.1962 1.8539,-6.1458 1.0062,-1.9497 2.4269,-3.7508 4.2432,-5.2542 1.8163,-1.5034 4.0251,-2.7041 6.5127,-3.496 1.2684,-0.4018 2.6176,-0.7001 4.0368,-0.88773 10e-6,0 3e-5,1e-5 4e-5,1e-5 z"
       inkscape:connector-curvature="0" />
    <path
       id="path3114-9"
       style="enable-background:new;fill:url(#linearGradient3098);fill-opacity:1"
       d="m -764.53,227.58 c 1.5739,-1.6262 3.1518,-2.5432 4.7801,-3.0492 v -1e-5 c 1.5424,-0.62426 3.08,-0.573 4.6409,-0.33937 1.5608,0.23362 3.1529,0.65116 4.7118,1.1225 1.5589,0.4713 3.0814,1.0137 4.3822,1.7014 1.3008,0.68768 2.3723,1.5374 2.9968,2.5575 0.64438,1.0526 1.5443,1.2966 2.1716,1.3102 1.0211,-0.41537 2.126,-1.1527 3.2362,-2.2728 1.2381,-1.2689 2.3876,-3.2258 2.944,-6.1332 0.38499,-2.5758 0.0245,-5.4132 -1.2773,-8.1176 v -1e-5 c -1.174,-2.792 -2.9644,-5.362 -4.9888,-7.3794 -3.7516,-3.0615 -8.3068,-5.1311 -13.343,-5.9264 h -1e-5 c -10.352,-0.98161 -19.547,2.4363 -26.008,7.8756 -8.1477,6.3997 -13.405,15.746 -14.619,26.049 v 1e-5 c -1.1505,8.6724 0.73161,17.969 6.0664,26.077 4.2281,5.8822 9.6452,10.339 15.573,13.29 2.9148,1.4482 5.9867,2.5656 9.1422,3.3239 4.4326,1.218 9.1836,1.8086 14.074,1.615 4.89,-0.19362 9.919,-1.1715 14.867,-3.1034 4.9593,-2.0849 9.502,-4.9804 13.46,-8.5466 3.9576,-3.5663 7.33,-7.8034 9.933,-12.531 4.9542,-8.8756 7.3398,-19.318 6.3553,-29.927 -1.0709,-10.684 -5.2893,-20.932 -12.069,-29.357 -6.5011,-8.1374 -15.319,-14.554 -25.524,-18.059 -11.013,-3.7832 -23.297,-4.7732 -35.21,-1.9602 -9.1559,2.1075 -18.125,6.8061 -24.961,14.32 -6.6723,7.5851 -11.163,16.798 -13.25,26.487 -2.1958,10.289 -1.9048,20.83 0.2418,30.794 2.6434,12.103 7.6795,23.358 14.343,33.471 6.6639,10.113 14.951,19.085 24.058,26.66 6.8085,5.7059 14.137,10.776 21.904,14.971 7.0754,3.8154 14.459,6.8658 21.961,9.2299 15.374,4.8231 30.92,6.8899 45.862,8.8282 9.1791,1.1998 18.203,2.4043 27.003,3.8207 8.8002,1.4165 17.377,3.0455 25.668,5.0424 24.25,5.8319 46.083,14.569 64.762,24.147 l -5.3108,10.349 c -19.887,-10.095 -40.779,-18.096 -62.258,-23.449 -16.489,-4.1452 -33.767,-6.67 -51.449,-9.2415 -15.279,-2.1518 -31.368,-4.6498 -47.501,-9.9412 -10e-6,-10e-6 -10e-6,-10e-6 -2e-5,-10e-6 -8.0755,-2.6861 -15.971,-6.1217 -23.516,-10.354 -8.364,-4.7136 -16.111,-10.284 -23.203,-16.457 l -10e-6,-1e-5 c -19.336,-16.492 -34.665,-39.133 -40.082,-65.606 -2.1659,-10.897 -2.2451,-22.5 0.39014,-33.973 2.5043,-10.742 7.6985,-20.923 15.383,-29.389 8.151,-8.5412 18.302,-13.755 28.596,-15.864 13.148,-2.8176 26.505,-1.6163 38.502,2.7698 11.073,4.0278 20.635,11.114 27.686,20.249 7.1167,9.1278 11.604,20.257 12.635,32.149 0.87791,11.376 -1.72,22.656 -7.3456,32.417 -5.6086,9.9051 -14.494,17.959 -25.659,22.536 -1e-5,0 -3e-5,10e-6 -4e-5,10e-6 -10.561,3.9518 -21.507,4.1437 -31.282,1.3223 -10e-6,0 -3e-5,-10e-6 -4e-5,-10e-6 -10.015,-2.4685 -19.596,-8.5056 -26.63,-18.06 -5.9037,-8.8983 -8.1553,-18.942 -7.067,-28.423 1.1099,-11.361 6.5855,-21.799 15.56,-29.27 4.7181,-4.3206 11.064,-7.5834 18.61,-8.9533 3.6869,-0.66934 7.3751,-0.84389 10.982,-0.63552 2.9929,0.41246 5.6766,1.1565 8.0915,2.1122 2.4149,0.95575 4.5615,2.1242 6.4807,3.4327 3.8385,2.617 6.7786,5.7718 9.0658,9.2547 2.3402,3.7213 3.4871,7.7234 3.543,11.867 -0.12007,4.1812 -0.85534,7.5079 -2.0326,9.9779 -1.2542,2.7077 -2.6288,5.0898 -4.0923,7.1761 -1.4635,2.0862 -3.0204,3.8754 -4.5885,5.3205 v 1e-5 c -0.59927,0.61078 -1.215,1.2187 -1.8481,1.8245 -2.8503,2.7272 -5.9026,4.7151 -8.8318,5.9368 -3.0874,1.3333 -6.0078,1.8154 -8.7304,1.5398 -2.7227,-0.27566 -5.2893,-1.2956 -7.4921,-3.3522 -2.3662,-2.2092 -4.3915,-5.1917 -5.154,-8.6464 -0.38125,-1.7273 -0.44795,-3.5668 -0.1481,-5.4198 0.29984,-1.853 0.96721,-3.7155 1.9687,-5.4622 0.75531,-1.3053 1.7085,-2.5576 2.8395,-3.7261 10e-6,-1e-5 3e-5,-1e-5 4e-5,-2e-5 z"
       inkscape:connector-curvature="0" />
    <path
       id="path3133-3"
       style="enable-background:new;fill:url(#linearGradient3098);fill-opacity:1"
       d="m -609,454.28 c -1.0909,2.8795 -1.413,4.9882 -1.2383,6.9546 0.17477,1.9664 0.83969,3.7821 1.8188,5.521 0.97915,1.7389 2.285,3.3773 3.755,4.7071 1.4701,1.3298 3.1099,2.3342 4.624,2.8403 1.3153,0.43962 3.3814,0.77468 5.2652,1.214 1.8839,0.4393 3.5912,1.0148 4.0013,2.3135 0.17452,0.5527 -0.11712,1.6214 -0.80138,2.9907 -0.68426,1.3693 -1.7676,3.0337 -3.1491,4.7488 -1.2538,1.4695 -2.7208,2.9346 -4.2498,4.2649 -1.529,1.3304 -3.1184,2.5261 -4.5768,3.5316 -1.7326,1.1945 -4.5193,3.1923 -8.7374,5.2264 -2.1091,1.017 -4.5776,2.0345 -7.4348,2.8969 -2.8572,0.86245 -6.1047,1.57 -9.7308,1.9223 -5.7477,0.53415 -12.327,0.26796 -19.323,-1.427 -6.9963,-1.695 -14.417,-4.833 -21.388,-9.8774 -4.1326,-3.0304 -8.0684,-6.6152 -11.648,-10.738 -3.5794,-4.1228 -6.8015,-8.7845 -9.5028,-13.907 -3.0142,-5.7156 -4.9954,-11.158 -6.3402,-16.211 -1.105,-4.0974 -1.615,-7.9864 -1.7208,-11.643 -0.10578,-3.6569 0.1939,-7.0837 0.77941,-10.296 0.5855,-3.2122 1.4578,-6.2111 2.5519,-9.0273 1.0941,-2.8162 2.4107,-5.4505 3.928,-7.9326 3.3219,-5.2456 7.1995,-9.7209 11.807,-13.821 4.6076,-4.1004 9.9732,-7.8357 16.438,-11.093 4.8055,-2.4662 10.242,-4.751 16.534,-6.5994 6.2918,-1.8485 13.451,-3.269 21.589,-3.7055 5.9849,-0.32858 12.5,-0.0995 19.466,1.0448 6.9663,1.1443 14.393,3.2011 21.982,6.6833 l 4.7789,-10.391 c -14.797,-6.7778 -31.037,-9.6013 -47.059,-8.4028 -14.725,1.063 -29.219,5.4488 -42.202,13.039 l -10e-6,1e-5 c -11.718,6.6328 -22.31,16.699 -29.534,30.037 -6.8783,13.293 -8.4218,28.798 -3.9706,43.576 l 10e-6,10e-6 c 4.9639,16.328 14.856,31.654 29.471,42.935 12.185,9.254 27.408,14.526 43.529,14.314 5.9109,-0.12011 11.761,-1.1052 17.373,-2.9204 2.9436,-0.95398 5.5761,-2.0423 7.9596,-3.1907 2.3836,-1.1484 4.5187,-2.3579 6.4652,-3.5945 3.893,-2.4731 7.0418,-5.0348 9.8312,-7.7363 2.7117,-2.8899 4.9664,-5.7675 7.0175,-8.9608 2.0511,-3.1934 3.902,-6.7094 5.4964,-10.924 1.1005,-2.9095 1.5581,-6.2453 1.3377,-9.4957 -0.22033,-3.2504 -1.1122,-6.4084 -2.4806,-9.0899 -1.3684,-2.6814 -3.201,-4.8859 -5.223,-6.4137 -2.022,-1.5278 -4.2252,-2.3838 -6.4172,-2.5182 -1.877,-0.11512 -3.983,-0.0738 -6.1144,0.18605 -2.1314,0.25982 -4.2883,0.7353 -6.2824,1.4506 -1.9941,0.71531 -3.8246,1.666 -5.3184,2.8933 -1.4938,1.2273 -2.6401,2.7259 -3.3568,4.6263 z"
       inkscape:connector-curvature="0" />
    <path
       id="path3167-8"
       style="enable-background:new;fill:url(#linearGradient3098);fill-opacity:1"
       d="m -607.06,554.84 c 0.77795,-0.15204 1.3371,-0.15314 1.8137,0.021 0.76025,0.26569 1.3984,0.82642 1.9735,1.6198 0.57509,0.79334 1.0755,1.8118 1.4559,2.91 0.38045,1.0981 0.6352,2.2751 0.74107,3.3514 0.10587,1.0762 0.0613,2.0504 -0.079,2.7225 -0.14319,0.68612 -0.49469,1.6549 -0.75376,2.5816 -0.25907,0.92668 -0.4174,1.8185 -0.002,2.361 0.8218,1.074 2.5162,1.3971 4.4281,1.2078 1.912,-0.18936 3.9967,-0.90047 5.7619,-1.5656 0.24778,-0.0934 0.48371,-0.18738 0.70976,-0.28207 1.0312,-0.42374 1.8642,-0.85447 2.6684,-1.344 0.80414,-0.48952 1.5806,-1.0385 2.4678,-1.7522 0.88716,-0.71376 1.8887,-1.5904 3.0768,-2.7999 1.1882,-1.2094 2.5719,-2.7496 4.0669,-4.8886 1.2037,-1.7276 2.4609,-3.8376 3.5724,-6.4795 1.1115,-2.6419 2.0856,-5.8241 2.4891,-9.629 0.21715,-2.4831 0.0178,-5.0966 -0.71165,-7.7185 -0.72945,-2.6219 -1.9918,-5.2562 -3.8531,-7.6542 -1.6047,-2.0661 -3.5115,-4.0041 -5.7038,-5.7647 -2.1923,-1.7606 -4.6722,-3.3432 -7.3537,-4.7082 -4.6148,-2.4042 -9.9728,-4.4652 -16.08,-5.7739 -6.1069,-1.3088 -12.974,-1.8691 -20.357,-1.0838 l -0.70384,-6.6818 c 13.783,-1.4964 27.91,1.1572 40.252,7.742 5.3479,2.7107 10.68,6.7762 15.076,12.523 h 10e-6 c 4.0486,5.2937 6.1511,12.267 5.3981,19.928 v 10e-6 c -0.92069,6.7817 -3.6157,13.187 -7.8294,18.592 -2.6455,3.3724 -5.8032,6.2781 -9.346,8.6219 -1.8912,1.2487 -3.6372,2.1916 -5.2501,2.9533 -1.6374,0.79363 -3.1537,1.3852 -4.5968,1.8551 -1.443,0.46987 -2.8142,0.81755 -4.191,1.0772 -1.3767,0.25967 -2.7598,0.43154 -4.2402,0.50634 -1.4805,0.0748 -3.0592,0.0538 -4.8293,-0.12626 -0.42957,-0.0452 -0.86793,-0.10198 -1.3158,-0.17199 -1.738,-0.27171 -3.3829,-0.99152 -4.767,-1.9948 -1.384,-1.0033 -2.5065,-2.2857 -3.304,-3.6492 -0.79741,-1.3635 -1.2709,-2.8045 -1.4574,-4.154 -0.18647,-1.3495 -0.0888,-2.6064 0.18633,-3.667 0.45532,-1.755 1.3555,-3.0473 2.3407,-4.0533 0.98521,-1.006 2.0598,-1.7374 3.0679,-2.3427 1.008,-0.60536 1.9544,-1.0854 2.8133,-1.4718 0.85888,-0.38639 1.6333,-0.6736 2.3658,-0.81676 z"
       inkscape:connector-curvature="0" />
    <path
       id="path3207-2"
       style="enable-background:new;fill:url(#linearGradient3098);fill-opacity:1"
       d="m -568.81,296.3 c 0,0 -0.58192,0.54508 -1.6047,1.5978 -1.02278,1.05272 -2.486,2.6189 -4.1895,4.7256 -1.7035,2.1067 -3.6463,4.7583 -5.5802,7.9677 -1.934,3.2093 -3.856,6.9788 -5.5024,11.256 -1.5843,4.4812 -2.6822,9.2253 -3.1963,13.976 -0.51415,4.751 -0.44649,9.5048 0.12945,14.009 0.75995,5.6745 2.0512,10.788 3.4901,15.159 1.4389,4.3711 3.0141,8.0059 4.3615,10.831 1.2609,2.693 2.3038,4.7133 2.939,5.9297 1.2536,2.4012 3.1245,4.6368 5.3814,6.464 2.2568,1.8271 4.8976,3.2475 7.6933,4.1101 5.5914,1.7252 11.766,1.226 17.01,-2.312 5.2436,-3.5382 7.2022,-8.1879 7.1806,-12.528 -0.0108,-2.1699 -0.5181,-4.2696 -1.3923,-6.185 -0.87417,-1.9154 -2.1146,-3.649 -3.6368,-5.1218 -0.86032,-0.83229 -2.0211,-1.6238 -3.3958,-2.4214 -3.1458,-1.8489 -7.5034,-3.6512 -11.838,-6.0155 -2.1674,-1.1822 -4.3254,-2.5037 -6.3113,-3.9886 -1.9859,-1.4848 -3.799,-3.1345 -5.2847,-4.899 -0.89092,-1.0623 -1.6582,-2.1684 -2.2693,-3.2852 -1.73,-3.161 -2.9982,-6.6123 -3.7515,-10.173 -0.75326,-3.5609 -0.99152,-7.23 -0.76701,-10.831 0.34818,-4.4569 1.296,-8.5811 2.4552,-12.146 1.1592,-3.565 2.5274,-6.5758 3.7801,-8.9708 1.2527,-2.395 2.3893,-4.1812 3.1708,-5.3708 0.78157,-1.1896 1.208,-1.7897 1.1289,-1.7776 z"
       inkscape:connector-curvature="0" />
    <path
       id="path3917-5"
       style="enable-background:new;fill:url(#linearGradient3098);fill-opacity:1"
       d="m -754.23,1092 c 5.5895,-48.584 16.28,-95.887 30.384,-141.61 14.362,-46.607 32.186,-91.72 52.351,-135.43 0,-1e-5 10e-6,-2e-5 10e-6,-2e-5 38.716,-83.905 85.815,-162.98 137.61,-238.2 l 3e-5,-3e-5 c 40.12,-58.271 83.136,-114.32 128.7,-167.98 l 3e-5,-3e-5 c 13.524,-15.926 27.265,-31.632 41.307,-47.008 3.793,-4.1534 7.6008,-8.2748 11.438,-12.346 1e-5,-1e-5 2e-5,-2e-5 4e-5,-3e-5 0.99554,-1.0563 1.989,-2.1047 2.9824,-3.1426 0,-1e-5 1e-5,-1e-5 1e-5,-2e-5 0.25178,-0.26291 0.50142,-0.52271 0.7492,-0.77909 -0.20139,0.17251 -0.40332,0.34551 -0.60579,0.51901 22.151,-14.25 44.189,-28.397 66.113,-42.441 -2.2356,9.1242 -4.3282,18.118 -6.2777,26.982 l -44.887,31.878 2.5306,-2.2478 c -0.20853,0.23972 -0.42426,0.48894 -0.64748,0.7474 -0.89226,1.0331 -1.7947,2.0881 -2.7097,3.1631 -1e-5,0 -1e-5,10e-6 -1e-5,10e-6 -3.5265,4.143 -7.0402,8.3543 -10.558,12.619 -13.023,15.787 -25.752,31.906 -38.286,48.261 0,1e-5 0,1e-5 -10e-6,2e-5 -42.224,55.108 -81.715,112.29 -118.16,171.33 -47.022,76.243 -88.96,155.32 -122.06,237.65 0,10e-6 -1e-5,2e-5 -1e-5,4e-5 -17.235,42.853 -32.054,86.468 -43.347,130.77 -7.5961,29.841 -13.644,59.94804 -17.624,90.14804 -23.305,10.963 -46.346,23.265 -68.999,37.109 z"
       inkscape:connector-curvature="0" />
    <path
       id="path3921-7"
       style="enable-background:new;fill:url(#linearGradient3098);fill-opacity:1"
       d="m -580.24,365.87 c 15.06,5.3975 29.446,13.093 42.185,23.236 13.153,10.489 24.365,23.596 32.58,38.597 0,0 0,1e-5 1e-5,1e-5 17.949,33.285 19.916,73.448 10.604,109.86 0,1e-5 0,1e-5 -10e-6,2e-5 -7.6937,31.075 -19.257,61.772 -36.585,89.849 -4.5974,7.4406 -9.7052,14.779 -15.525,21.796 -0.0831,0.10014 -0.16647,0.20037 -0.25019,0.30068 -6.9555,-3.1327 -13.794,-6.4876 -20.268,-10.318 -1.7605,-1.0414 -3.4803,-2.13 -5.1219,-3.3058 -0.41756,-0.29908 -0.81711,-0.61529 -1.1938,-0.95377 -0.0828,-0.0972 -0.15654,-0.20264 -0.22066,-0.31684 3.2458,3.6416 6.5205,7.3168 9.8244,11.026 0.003,0.003 0.006,0.007 0.009,0.0103 -0.003,-0.003 -0.006,-0.007 -0.009,-0.0103 -3.3039,-3.7088 -6.608,-7.4168 -9.9124,-11.124 -0.0215,0.0194 -0.0346,0.031 -0.0392,0.035 0.0342,-0.031 0.0846,-0.0783 0.15173,-0.14134 h 10e-6 c 0.264,-0.24782 0.55473,-0.53362 0.87557,-0.85358 0,0 0,-10e-6 10e-6,-10e-6 1.2477,-1.2441 2.5011,-2.6076 3.7856,-4.0609 l 10e-6,-10e-6 c 4.9001,-5.5427 9.4019,-11.657 13.684,-18.106 16.159,-24.301 27.503,-52.07 35.699,-80.905 v -10e-6 c 8.5251,-31.197 8.4927,-65.387 -5.7567,-92.476 0,0 0,-10e-6 -10e-6,-10e-6 -6.2994,-12.427 -15.308,-23.612 -26.046,-32.735 -11.351,-9.6829 -24.856,-17.121 -39.248,-22.389 3.4353,-5.7442 7.0278,-11.418 10.777,-17.011 z"
       inkscape:connector-curvature="0" />
    <path
       id="path3931-9"
       style="enable-background:new;fill:url(#linearGradient3098);fill-opacity:1"
       d="m -901.45,747.53 c 1.7496,-0.81209 3.1173,-1.5449 4.2357,-2.2538 2.5309,-1.5877 3.7787,-3.0662 5.5083,-4.4904 0.8648,-0.71209 1.8538,-1.4038 3.2028,-2.0369 1.349,-0.63306 3.0596,-1.21 5.3602,-1.6346 6.0707,-1.07 12.246,-1.6192 18.421,-1.7215 13.044,-0.20908 26.099,1.6457 38.58,5.335 13.754,4.0666 26.81,10.406 38.497,18.626 13.188,9.268 24.626,20.967 33.955,34.112 11.166,15.719 19.325,33.518 25.066,52.034 v 2e-5 c 7.2508,23.391 10.638,47.937 11.643,72.574 1.2917,31.897 -1.4869,63.934 -6.5246,95.62898 l 13.804,2.0164 c 4.4918,-32.45598 6.6281,-65.41298 4.632,-98.27898 -1.5356,-25.395 -5.6289,-50.824 -13.693,-75.133 0,0 0,-10e-6 -10e-6,-10e-6 -6.3888,-19.267 -15.405,-37.806 -27.553,-54.22 -10.171,-13.732 -22.564,-25.857 -36.762,-35.414 l -10e-6,-1e-5 c -12.584,-8.4629 -26.522,-14.864 -41.121,-18.852 -13.236,-3.6172 -27.005,-5.2708 -40.708,-4.7687 -6.4812,0.2338 -12.967,0.95054 -19.348,2.2174 -4.5766,0.89126 -7.5131,1.0639 -10.077,0.99612 -2.5635,-0.0678 -4.7388,-0.3614 -7.6228,0.008 -1.5607,0.19278 -3.334,0.58615 -5.4588,1.3934 -1.292,0.49087 -3.1561,1.6085 -5.1625,3.1678 -2.0064,1.5593 -4.1447,3.5647 -6.0177,5.7213 -1.873,2.1566 -3.4734,4.46 -4.5776,6.5095 -1.1043,2.0494 -1.7202,3.8359 -1.8042,4.9591 0.96889,0.0274 2.6363,-0.46144 4.6647,-1.0909 2.0284,-0.62949 4.4243,-1.3891 6.8546,-2.0757 2.4303,-0.68662 4.8946,-1.3064 7.0225,-1.8493 2.1279,-0.54286 3.9185,-1.0186 4.9832,-1.4784 z"
       inkscape:connector-curvature="0" />
    <path
       id="path3935-7"
       style="enable-background:new;fill:url(#linearGradient3098);fill-opacity:1"
       d="m -622.75,816.87 c 26.977,-3.3002 31.353,-19.08 34.775,-26.271 -14.29,8.5321 -25.521,-2.7222 -33.599,10.96"
       inkscape:connector-curvature="0" />
    <path
       id="path3938-2"
       style="enable-background:new;fill:url(#linearGradient3098);fill-opacity:1"
       d="m -552.27,651.19 c 47.514,-5.8126 55.222,-33.606 61.25,-46.271 -25.169,15.028 -44.95,-4.7946 -59.179,19.304"
       inkscape:connector-curvature="0" />
    <path
       id="path3940-7"
       style="enable-background:new;fill:url(#linearGradient3098);fill-opacity:1"
       d="m -508.51,867.93 c 1.8064,1.1304 3.1358,2.3891 4.1305,3.7453 0.99473,1.3562 1.6568,2.8123 2.0926,4.3368 0.55315,1.5912 0.71456,3.2716 0.69573,4.9593 -0.0188,1.6877 -0.22115,3.3848 -0.55495,4.994 -0.3338,1.6092 -0.80661,3.1302 -1.4395,4.4384 -0.63288,1.3081 -1.4323,2.4016 -2.3826,3.1446 -1.1426,0.89336 -1.3169,1.9842 -1.2805,2.7131 1.1398,2.3392 3.7265,4.9298 7.9231,6.8977 2.2749,1.057 5.3108,1.6604 9.0212,1.3644 3.6423,-0.43483 7.1286,-1.9735 9.9931,-4.3907 0.44103,-0.348 0.86702,-0.70426 1.277,-1.0663 6.4812,-7.0139 9.8986,-16.354 9.2802,-26.245 v -10e-6 c -1.5951,-13.129 -8.4844,-23.7 -17.148,-30.319 h -10e-6 c -10.307,-8.4071 -23.558,-12.329 -36.77,-10.866 h -10e-6 c -11.184,1.0864 -22.245,6.1704 -30.652,15.136 -0.33582,0.38704 -0.66494,0.77746 -0.98737,1.1711 -4.0076,4.8998 -7.0924,10.382 -9.1928,16.194 -2.1003,5.8118 -3.216,11.953 -3.3094,18.102 -0.26016,5.8832 0.34673,11.974 1.959,17.994 1.6123,6.0201 4.2301,11.969 7.9949,17.518 3.9747,5.5761 8.8532,10.403 14.399,14.314 5.5463,3.9112 11.76,6.907 18.353,8.8149 12.471,3.6784 26.159,3.695 39.03,-0.49843 13.033,-4.3392 24.624,-12.515 33.208,-23.314 8.3423,-10.43 13.857,-23.252 15.344,-36.896 1.7391,-17.279 -2.7094,-34.691 -11.802,-49.174 -8.9301,-14.313 -22.114,-25.904 -37.599,-32.732 -11.372,-4.9901 -23.811,-7.2407 -36.095,-6.6167 -12.93,0.69823 -25.337,4.3412 -36.564,9.7902 -14.287,6.9719 -26.831,16.364 -37.86,27.068 -11.029,10.704 -20.545,22.714 -28.801,34.972 -11.953,17.644 -21.776,36.163 -29.339,54.81 -7.5636,18.646 -12.867,37.414 -16.061,55.654 v 3e-5 c -2.3111,13.222 -3.5315,26.10301 -4.2106,38.42301 -0.25031,4.5353 -0.42266,8.9738 -0.67375,13.306 -0.18116,3.0029 -0.31489,5.8711 -0.87358,8.5237 l -13.39,-2.7777 c 0.32839,-1.2862 0.36217,-3.5042 0.58941,-6.5687 0.23865,-4.2484 0.40896,-8.6853 0.6675,-13.304 v -1e-4 c 0.73682,-13.27701 2.1354,-26.68101 4.5572,-40.07601 7.588,-41.479 24.765,-80.75 48.789,-115.01 1e-5,-10e-6 1e-5,-2e-5 2e-5,-3e-5 17.829,-25.985 41.468,-50.136 72.197,-64.683 12.394,-5.7886 26.186,-9.4971 40.68,-10.062 h 4e-5 c 13.837,-0.44558 27.666,2.3305 40.303,8.1459 17.034,7.9144 31.282,20.862 40.859,36.872 9.6539,15.956 14.219,35.072 11.992,54.375 -1.9178,14.939 -8.0995,28.885 -17.536,40.261 -10e-6,1e-5 -2e-5,3e-5 -3e-5,4e-5 -9.413,11.451 -22.065,20.189 -36.601,24.794 -13.907,4.2734 -28.706,4.1884 -42.439,-0.0894 -13.89,-4.2207 -26.405,-13.021 -35.167,-25.589 -7.8236,-11.935 -11.098,-25.491 -10.335,-38.452 0.2989,-13.148 5.0966,-26.727 14.936,-38.006 9.2791,-9.71 21.078,-15.263 33.11,-16.568 0,0 10e-6,-10e-6 2e-5,-10e-6 14.316,-1.7791 28.75,2.0916 40.424,11.087 9.6816,6.8116 17.57,18.366 19.986,33.712 0.0332,0.40549 0.0608,0.81023 0.0827,1.2142 0.1988,3.6598 -0.0648,7.0394 -0.63697,10.148 -0.57217,3.1083 -1.4539,5.9463 -2.5413,8.5394 -2.1748,5.1861 -5.1464,9.3949 -8.502,12.876 -3.8556,3.8435 -8.3157,6.2197 -13.09,7.3728 -5.132,1.0219 -9.2678,1.0014 -12.501,0.29587 -3.805,-0.7864 -7.1236,-1.8166 -10.091,-3.0261 -2.9674,-1.2095 -5.5832,-2.6065 -7.8323,-4.1219 -1.8452,-1.1248 -3.7003,-2.3398 -5.5845,-3.6603 -3.0947,-2.1689 -5.6871,-4.6315 -7.6781,-7.1766 -2.6808,-3.352 -4.2892,-6.8003 -4.8549,-10.223 -0.2829,-1.7114 -0.30329,-3.4225 -0.0236,-5.1212 0.27968,-1.6988 0.85987,-3.3864 1.8192,-5.0225 1.0119,-1.7259 2.2864,-3.4 3.8189,-4.8571 1.5325,-1.4571 3.3265,-2.6946 5.344,-3.5566 2.0176,-0.86201 4.2601,-1.3454 6.6179,-1.3473 2.3578,-0.002 4.8253,0.47954 7.2474,1.4537 1.2337,0.49821 2.4638,1.1277 3.6773,1.8872 z"
       inkscape:connector-curvature="0" />
    <path
       id="path3943-2"
       style="enable-background:new;fill:url(#linearGradient3098);fill-opacity:1"
       d="m -710.39,374.47 c 0,0 0.0326,0.43242 0.14318,1.2235 0.11116,0.79101 0.3039,1.9442 0.69737,3.3736 0.39291,1.4295 0.9897,3.1366 1.9412,4.9803 0.95095,1.8438 2.2609,3.8219 4.0555,5.743 1.8903,1.7946 4.1102,3.2586 6.4837,4.2756 2.3729,1.0165 4.8928,1.5854 7.3397,1.716 3.3986,0.1797 6.4817,-0.20217 8.9955,-0.75823 2.5137,-0.55662 4.4626,-1.2741 5.7444,-1.7972 0.42289,-0.16559 0.77753,-0.31111 1.0594,-0.42874 1.409,-0.58927 2.7944,-1.512 3.9698,-2.6458 1.1747,-1.1343 2.1372,-2.4782 2.7677,-3.8758 0.63037,-1.3981 0.92922,-2.8464 0.84731,-4.2016 -0.0826,-1.3557 -0.54489,-2.6157 -1.3929,-3.6988 -0.84787,-1.0826 -1.8468,-1.7539 -2.8796,-2.1424 -1.0332,-0.38781 -2.1023,-0.49366 -3.1452,-0.40764 -1.0429,0.086 -2.0603,0.36342 -3.0132,0.77546 -0.95337,0.41272 -1.8428,0.96019 -2.6371,1.6158 -0.49487,0.40854 -0.98951,0.9711 -1.5184,1.6348 -1.0322,1.2543 -2.1475,2.9281 -3.5538,4.5176 -0.70308,0.79506 -1.4779,1.5661 -2.324,2.2489 -0.84601,0.68282 -1.7639,1.2764 -2.7201,1.7272 -0.86832,0.41151 -1.7782,0.69203 -2.6541,0.81498 -1.5361,0.21556 -3.1278,0.17147 -4.6735,-0.13992 -1.5457,-0.31138 -3.0446,-0.889 -4.4226,-1.6951 -2.0228,-1.263 -3.628,-2.8512 -4.8596,-4.4077 -1.2316,-1.5565 -2.095,-3.0815 -2.7056,-4.3658 -0.61058,-1.2842 -0.97313,-2.3316 -1.2014,-3.0382 -0.22874,-0.70595 -0.32589,-1.0766 -0.34377,-1.0441 z"
       inkscape:connector-curvature="0" />
    <path
       id="path3950-0"
       style="enable-background:new;fill:url(#linearGradient3098);fill-opacity:1"
       d="m -467.01,427.13 c 0,0 -0.63244,0.13055 -1.763,0.39266 -1.1301,0.26279 -2.7596,0.65793 -4.751,1.2284 -3.9825,1.1399 -9.4243,3.0066 -15.029,5.953 -2.8229,1.4709 -5.6662,3.2873 -8.308,5.4028 -2.6407,2.1157 -5.0752,4.532 -7.1531,7.0737 -2.5202,3.1646 -4.3114,6.4106 -5.5134,9.1761 -1.202,2.7655 -1.8353,5.0444 -2.1674,6.3596 -0.14064,0.55823 -0.25456,1.136 -0.33877,1.7265 -0.29174,2.2392 -0.16293,4.603 0.36493,6.7838 0.52823,2.1814 1.4508,4.1771 2.6417,5.7816 1.1914,1.6051 2.6451,2.8199 4.2161,3.5462 1.5706,0.72554 3.2545,0.96406 4.9714,0.68998 1.8289,-0.29187 3.269,-1.0413 4.4063,-2.0004 1.1373,-0.95911 1.9742,-2.1314 2.5832,-3.3609 0.60835,-1.229 0.9896,-2.5139 1.198,-3.7727 0.20776,-1.2584 0.24521,-2.4925 0.13502,-3.6946 -0.0187,-0.20767 -0.0491,-0.42284 -0.0899,-0.64634 -0.29142,-1.3926 -0.98437,-3.2131 -1.5227,-5.4666 -0.53794,-2.2528 -0.90029,-4.9364 -0.70463,-7.6582 0.21046,-2.974 1.0869,-5.9474 2.4112,-8.1885 1.5799,-2.6728 3.5455,-5.0841 5.6115,-7.1408 2.2954,-2.2958 4.7006,-4.2029 6.9593,-5.7632 2.2588,-1.5604 4.372,-2.7755 6.1541,-3.7111 1.7817,-0.93616 3.2328,-1.5949 4.2207,-2.0332 0.98789,-0.43822 1.5128,-0.65704 1.4669,-0.67805 z"
       inkscape:connector-curvature="0" />
    <path
       id="path2404-5"
       style="enable-background:new;fill:url(#linearGradient3098);fill-opacity:1"
       d="m -922.96,976.92 c -1.1569,1.7929 -1.8246,3.4983 -2.1523,5.1509 -0.3187,1.6484 -0.2963,3.2469 -0.0453,4.8141 0.1794,1.6738 0.7497,3.2621 1.4863,4.7811 0.7365,1.5189 1.6398,2.9694 2.6232,4.285 0.9925,1.3112 2.0652,2.4876 3.192,3.403 1.1268,0.9155 2.3163,1.5649 3.4922,1.8329 1.4207,0.3187 2.0389,1.2335 2.313,1.9102 -0.036,2.6018 -1.2679,6.0445 -4.2308,9.613 -1.6043,1.9226 -4.0985,3.7622 -7.5817,5.0734 -3.479,1.1556 -7.2917,1.2493 -10.909,0.2786 -0.5462,-0.1277 -1.0869,-0.2668 -1.6119,-0.4199 -8.8491,-3.5889 -15.919,-10.585 -19.568,-19.799 -4.1492,-12.557 -2.4133,-25.055 2.6146,-34.735 5.7422,-11.991 16.072,-21.184 28.648,-25.483 10.579,-3.7758 22.751,-3.8826 34.178,0.65121 0.4633,0.20975 0.9279,0.4222 1.3942,0.63828 5.7052,2.7315 10.834,6.3761 15.208,10.742 4.374,4.3655 7.9926,9.4509 10.7,14.972 2.7392,5.2129 4.7797,10.984 5.8851,17.117 1.1053,6.1328 1.2665,12.631 0.2168,19.25701 -1.2191,6.7355 -3.5806,13.18 -6.9381,19.082 -3.3486,5.897 -7.7019,11.255 -12.853,15.787 -9.7187,8.6357 -22.1,14.478 -35.531,16.16 -13.638,1.6195 -27.605,-0.846 -39.975,-6.9619 -11.986,-5.8884 -22.429,-15.146 -29.585,-26.858 -8.9289,-14.895 -12.313,-32.54501 -10.252,-49.52001 1.9884,-16.754 8.9816,-32.852 20.092,-45.624 8.1649,-9.3548 18.464,-16.686 29.842,-21.348 11.998,-4.8708 24.778,-6.8571 37.26,-6.7052 15.898,0.2259 31.243,3.3883 45.78,8.3797 14.537,4.9914 28.254,11.812 40.946,19.388 18.323,10.88 35.101,23.455 49.878,37.11 14.777,13.655 27.57,28.378 38.22,43.52601 7.7183,10.982 14.304,22.118 20.163,32.977 2.1565,3.9974 4.1996,7.9418 6.2697,11.756 1.45,2.6365 2.7884,5.1764 4.4243,7.3388 l 10.934,-8.2129 c -0.846,-1.0233 -1.8171,-3.0176 -3.3294,-5.6923 -2.0256,-3.7428 -4.0679,-7.6854 -6.2687,-11.754 -6.3207,-11.699 -13.284,-23.237 -21.184,-34.32401 -24.514,-34.308 -56.774,-62.532 -93.092,-83.31 -27.194,-15.925 -58.865,-27.717 -92.864,-27.802 -13.685,0.0393 -27.742,2.5532 -41.094,8.2093 -12.714,5.487 -24.047,13.885 -33,24.524 -12.051,14.414 -19.435,32.195 -21.281,50.756 -1.9501,18.55 2.0593,37.78801 12.284,54.31101 8.0957,12.701 19.624,22.69 33.008,28.967 13.389,6.3569 28.564,8.8755 43.672,6.8582 14.406,-2.0537 27.762,-8.4299 38.366,-18.145 10.772,-9.7315 18.356,-23.023 20.934,-38.125 1.9965,-14.12801 -0.8051,-27.79101 -7.0184,-39.19201 -5.8672,-11.769 -15.981,-22.018 -29.686,-28.037 -12.53,-4.8368 -25.572,-4.8394 -37.013,-0.9 -13.715,4.4851 -25.126,14.13 -31.866,27.241 -5.8601,10.284 -8.0817,24.099 -3.7313,39.01 0.1361,0.38351 0.2904,0.75851 0.4352,1.13691 1.3859,3.3928 3.0593,6.3398 4.8984,8.9105 1.8386,2.5698 3.8519,4.7591 5.9328,6.6459 4.18,3.7649 8.659,6.3095 13.181,8.0294 5.1195,1.8389 10.167,2.0915 14.983,1.1004 5.0772,-1.2586 8.8055,-3.0355 11.437,-5.0524 3.1036,-2.3296 5.6695,-4.6747 7.8421,-7.0337 2.1639,-2.3539 3.9401,-4.7332 5.3313,-7.0617 1.1862,-1.8012 2.3522,-3.6923 3.4912,-5.6878 1.882,-3.28221 3.1778,-6.61241 3.8953,-9.76241 0.9985,-4.1739 0.9874,-7.9802 0.0463,-11.32 -0.4749,-1.6675 -1.185,-3.2242 -2.1616,-4.6425 -0.976,-1.4174 -2.2193,-2.698 -3.7844,-3.7698 -1.6485,-1.132 -3.5193,-2.102 -5.5239,-2.7692 -2.0047,-0.66723 -4.1513,-1.0256 -6.3461,-0.9459 -2.1948,0.0797 -4.4274,0.59606 -6.5638,1.5987 -2.1364,1.0027 -4.1668,2.4892 -5.9417,4.4015 -0.901,0.97416 -1.7463,2.0669 -2.5178,3.2696 z"
       inkscape:connector-curvature="0" />
    <path
       id="path2451-0"
       style="enable-background:new;fill:url(#linearGradient3098);fill-opacity:1"
       d="m -745.74,718.48 c -0.11161,-0.11267 -0.21586,-0.2223 -0.31358,-0.32913 -0.64745,-0.70445 -1.236,-1.056 -1.8438,-1.2345 -0.60776,-0.17854 -1.2367,-0.19662 -1.9472,-0.2193 -1.9923,-0.001 -4.8039,-0.74054 -7.6524,-1.0275 -1.4242,-0.14349 -2.8596,-0.17848 -4.1989,-0.0217 -1.3393,0.15674 -2.582,0.50767 -3.5981,1.0427 -0.62904,0.33122 -1.3744,0.83526 -2.1532,1.4287 -0.77872,0.59347 -1.5889,1.2778 -2.3801,1.9098 -0.79125,0.63199 -1.5652,1.2106 -2.3089,1.5309 -0.74371,0.32035 -1.4645,0.37874 -2.1196,-0.0558 -0.57799,-0.38335 -1.2938,-1.7868 -1.7994,-3.8987 -0.50561,-2.1118 -0.76691,-4.9296 -0.49408,-7.969 0.22279,-2.4334 0.74432,-4.9673 1.5029,-7.3532 0.75862,-2.3858 1.7506,-4.6211 2.7794,-6.5404 0.42599,-0.79461 0.95174,-1.7465 1.6193,-2.8265 1.138,-1.8479 2.6697,-4.0822 4.8113,-6.4782 2.1416,-2.396 4.8991,-4.9573 8.4596,-7.299 2.6204,-1.7114 5.6217,-3.3019 9.0025,-4.6007 3.3808,-1.2988 7.1424,-2.3054 11.218,-2.8252 7.9943,-0.82246 16.852,-0.17256 25.85,2.4408 4.4987,1.3067 9.0249,3.0956 13.446,5.3582 4.4216,2.2626 8.7382,4.9997 12.795,8.1379 6.1728,4.5153 11.996,10.117 17.03,16.776 5.4013,7.1454 9.0426,14.241 11.569,20.94 1.8091,4.9126 3.0442,9.5245 3.9202,13.886 0.87601,4.3614 1.3905,8.4742 1.6678,12.422 0.27729,3.948 0.31593,7.7322 0.17847,11.448 -0.13746,3.7162 -0.45186,7.3653 -0.92523,11.041 v 10e-6 c -0.95788,7.5509 -2.4617,15.266 -4.814,23.991 -2.3523,8.7249 -5.5701,18.478 -10.345,29.799 v 10e-6 c -3.3367,7.937 -7.4256,16.677 -12.656,26.339 -5.2306,9.6626 -11.613,20.252 -19.539,31.761 l 9.426,6.4782 c 12.926,-18.697 24.263,-38.94 32.729,-60.743 6.9678,-17.813 11.85,-37.071 12.981,-57.232 v -10e-6 c 0.99794,-16.75 -1.2549,-34.338 -8.0437,-51.099 -6.4651,-15.531 -17.048,-29.141 -30.66,-39.23 -14.024,-11.155 -33.078,-19.367 -55.078,-18.541 -7.9754,0.56662 -15.962,2.8788 -23.4,7.0019 -2.2765,1.275 -4.457,2.7258 -6.5234,4.3429 -4.331,3.3922 -7.6771,7.0812 -10.347,10.777 v 10e-6 c -2.4844,3.4209 -4.2921,6.8725 -5.641,10.278 -1.3489,3.4055 -2.2392,6.7702 -2.7844,10.139 -0.60052,3.8083 -0.65313,7.5321 -0.18915,11.292 0.46398,3.7594 1.4436,7.561 3.1359,11.497 1.8161,3.8861 4.1902,7.6163 7.3333,11.052 2.5394,2.7756 5.7725,5.0402 9.2534,6.4908 3.409,1.3595 6.849,2.0468 10.003,2.1226 3.1538,0.0758 6.0222,-0.44985 8.4282,-1.3694 2.406,-0.91953 4.3534,-2.2241 5.7706,-3.7085 1.4172,-1.4844 2.3071,-3.1457 2.6508,-4.8707 0.36766,-1.8448 0.57639,-3.9414 0.5345,-6.0986 -0.0419,-2.1572 -0.3352,-4.3762 -0.88597,-6.4673 -0.55077,-2.0911 -1.3614,-4.0499 -2.3271,-5.6955 -0.48287,-0.8228 -1.0025,-1.5672 -1.5333,-2.2282 -0.53087,-0.66093 -1.0728,-1.2361 -1.5941,-1.7604 z"
       inkscape:connector-curvature="0" />
    <path
       id="path2426-1"
       style="enable-background:new;fill:url(#linearGradient3098);fill-opacity:1"
       d="m -610.81,310.64 c -3.6938,-4.1193 -6.1305,-8.9016 -8.2612,-13.956 -2.1307,-5.0545 -3.9693,-10.392 -6.333,-15.429 -0.58013,-1.2362 -1.2065,-2.4621 -1.8785,-3.6747 -2.3366,-4.1897 -5.2432,-8.1862 -8.6408,-11.834 -3.3976,-3.6474 -7.2859,-6.9446 -11.534,-9.7512 -3.5311,-2.3042 -7.1819,-4.2035 -10.851,-5.7375 -3.669,-1.534 -7.3561,-2.7037 -11.001,-3.58 -3.4102,-0.82292 -6.759,-1.3978 -10.055,-1.824 -2.2027,0.0165 -4.463,-0.088 -6.6678,8.4e-4 -2.2048,0.0889 -4.3574,0.36769 -6.377,1.1861 3.0323,2.012 5.91,4.1181 8.659,6.3528 2.7491,2.2348 5.3665,4.5948 7.8302,7.051 v 10e-6 c 5.3987,5.3982 9.9872,11.308 13.782,17.054 2.1487,3.2182 4.1486,6.4273 6.237,9.5482 2.0883,3.1209 4.2666,6.1531 6.7914,9.0927 0.20362,0.23707 0.41025,0.47062 0.61988,0.7008 3.6715,4.0189 8.2797,7.1146 13.441,9.6716 5.1613,2.557 10.855,4.5514 16.379,6.0071 1.5881,0.41849 3.0656,1.7652 3.8881,3.3889"
       inkscape:connector-curvature="0" />
    <path
       id="path2430-7"
       style="enable-background:new;fill:url(#linearGradient3098);fill-opacity:1"
       d="m -953.06,660.55 c 3.3214,-0.32648 5.6942,-0.73136 7.6104,-1.2255 1.9162,-0.49412 3.3737,-1.0702 4.8526,-1.6176 1.4789,-0.54731 2.9798,-1.0659 4.9851,-1.375 2.0053,-0.3091 4.5209,-0.41519 7.9858,-0.0162 1.9491,0.23747 3.8926,0.51618 5.8287,0.83586 20.49,3.3728 40.142,11.133 58.23,21.453 19.435,11.096 37.121,25.156 53.136,40.871 0,10e-6 1e-5,10e-6 1e-5,2e-5 16.848,16.541 31.829,34.952 44.99,54.56 13.211,19.69 24.577,40.59 33.783,62.367 8.7521,20.721 15.578,42.212 19.587,64.153 3.6141,19.87 5.0071,40.086 2.6204,59.739 -1.0841,8.9825 -2.9407,17.82 -5.7582,26.268 -2.6982,8.091 -6.2597,15.84802 -10.744,22.94902 l 11.886,7.3027 c 4.9824,-8.2336 8.8572,-17.05302 11.7,-26.13902 2.964,-9.4752 4.8433,-19.211 5.8388,-28.974 2.1611,-21.318 0.35201,-42.735 -3.8246,-63.422 -4.5989,-22.854 -12.046,-45.003 -21.435,-66.175 -9.866,-22.261 -21.909,-43.521 -35.794,-63.465 -13.827,-19.866 -29.52,-38.474 -47.093,-55.152 0,-1e-5 0,-1e-5 -10e-6,-1e-5 -16.695,-15.853 -35.164,-29.995 -55.416,-41.119 -18.858,-10.365 -39.391,-18.027 -60.783,-21.2 -2.0259,-0.29929 -4.0581,-0.55548 -6.0946,-0.76839 -3.5524,-0.38229 -6.2379,-0.80385 -8.4735,-1.2958 -2.2355,-0.49192 -4.0195,-1.0488 -5.7543,-1.595 -1.7348,-0.54622 -3.4206,-1.0811 -5.4587,-1.4666 -2.0381,-0.3855 -4.4315,-0.62528 -7.5589,-0.49535 -1.619,0.0673 -4.104,0.54677 -6.9328,1.3715 -2.8288,0.82477 -5.9963,1.9996 -9.0034,3.3678 -3.0071,1.3682 -5.8515,2.9278 -8.116,4.4113 -2.2644,1.4836 -3.9521,2.884 -4.7229,3.8919 0.97967,0.43421 3.0161,0.67238 5.5826,0.85729 2.5666,0.18491 5.6634,0.32497 8.7958,0.48812 3.1324,0.16315 6.3005,0.34929 9.0424,0.49133 2.7418,0.14203 5.0599,0.23365 6.5094,0.12243 z"
       inkscape:connector-curvature="0" />
  </g>
  <metadata
     id="metadata3067">
    <rdf:RDF>
      <cc:Work>
        <dc:format>image/svg+xml</dc:format>
        <dc:type
           rdf:resource="http://purl.org/dc/dcmitype/StillImage" />
        <cc:license
           rdf:resource="http://creativecommons.org/licenses/publicdomain/" />
        <dc:publisher>
          <cc:Agent
             rdf:about="http://openclipart.org/">
            <dc:title>Openclipart</dc:title>
          </cc:Agent>
        </dc:publisher>
        <dc:title></dc:title>
        <dc:date>2009-03-10T20:17:54</dc:date>
        <dc:description>art nouveau, art nouveau, branch, branch, clip art, clipart, image, media, nature, nature, png, public domain, svg, tree, tree, twist, twist, twisted, twisted, </dc:description>
        <dc:source>http://openclipart.org/detail/22107/twisted-branch-2-by-steren</dc:source>
        <dc:creator>
          <cc:Agent>
            <dc:title>Steren</dc:title>
          </cc:Agent>
        </dc:creator>
        <dc:subject>
          <rdf:Bag>
            <rdf:li>art nouveau</rdf:li>
            <rdf:li>branch</rdf:li>
            <rdf:li>clip art</rdf:li>
            <rdf:li>clipart</rdf:li>
            <rdf:li>image</rdf:li>
            <rdf:li>media</rdf:li>
            <rdf:li>nature</rdf:li>
            <rdf:li>png</rdf:li>
            <rdf:li>public domain</rdf:li>
            <rdf:li>svg</rdf:li>
            <rdf:li>tree</rdf:li>
            <rdf:li>twist</rdf:li>
            <rdf:li>twisted</rdf:li>
          </rdf:Bag>
        </dc:subject>
      </cc:Work>
      <cc:License
         rdf:about="http://creativecommons.org/licenses/publicdomain/">
        <cc:permits
           rdf:resource="http://creativecommons.org/ns#Reproduction" />
        <cc:permits
           rdf:resource="http://creativecommons.org/ns#Distribution" />
        <cc:permits
           rdf:resource="http://creativecommons.org/ns#DerivativeWorks" />
      </cc:License>
    </rdf:RDF>
  </metadata>
</svg>
